<svg width="39" height="36" viewBox="0 0 39 36" fill="none" xmlns="http://www.w3.org/2000/svg">
<g clip-path="url(#clip0_25_109)">
<path fill-rule="evenodd" clip-rule="evenodd" d="M5.21588 5.89993C5.21588 4.43769 5.84422 3.03533 6.96268 2.00137C8.08113 0.967409 9.59808 0.386536 11.1798 0.386536L32.0535 0.386536C32.5281 0.386536 32.9831 0.560798 33.3187 0.870986C33.6542 1.18117 33.8427 1.60188 33.8427 2.04055V29.6075C33.8427 30.0462 33.6542 30.4669 33.3187 30.7771C32.9831 31.0873 32.5281 31.2615 32.0535 31.2615H26.0896C25.6151 31.2615 25.16 31.0873 24.8245 30.7771C24.4889 30.4669 24.3004 30.0462 24.3004 29.6075C24.3004 29.1688 24.4889 28.7481 24.8245 28.438C25.16 28.1278 25.6151 27.9535 26.0896 27.9535H30.2644V23.5428H11.1798C10.71 23.5428 10.2508 23.6711 9.85955 23.9115C9.46833 24.1519 9.1626 24.4938 8.9807 24.8942C8.79879 25.2945 8.74881 25.7357 8.83701 26.1622C8.92521 26.5888 9.14768 26.9818 9.47651 27.2919C9.80868 27.6054 9.99252 28.028 9.9876 28.4669C9.98268 28.9057 9.78939 29.3247 9.45027 29.6318C9.11115 29.9388 8.65396 30.1088 8.17929 30.1043C7.70462 30.0997 7.25134 29.921 6.91918 29.6075C5.8259 28.5773 5.2142 27.1913 5.21588 25.7481V5.89993ZM30.2644 3.69457V20.2347H11.1798C10.3305 20.2347 9.52422 20.3979 8.79424 20.6935V5.89993C8.79424 5.31503 9.04558 4.75409 9.49296 4.34051C9.94034 3.92692 10.5471 3.69457 11.1798 3.69457H30.2644ZM12.3726 27.4022V34.5696C12.3726 34.672 12.4034 34.7723 12.4617 34.8594C12.5199 34.9465 12.6032 35.0169 12.7023 35.0627C12.8013 35.1085 12.9122 35.1279 13.0225 35.1187C13.1329 35.1095 13.2382 35.0721 13.3268 35.0106L16.7859 32.6134C16.8891 32.5418 17.0147 32.5032 17.1437 32.5032C17.2728 32.5032 17.3983 32.5418 17.5016 32.6134L20.9606 35.0106C21.0493 35.0721 21.1546 35.1095 21.2649 35.1187C21.3752 35.1279 21.4861 35.1085 21.5852 35.0627C21.6843 35.0169 21.7676 34.9465 21.8258 34.8594C21.884 34.7723 21.9149 34.672 21.9149 34.5696V27.4022C21.9149 27.2559 21.852 27.1157 21.7402 27.0123C21.6283 26.9089 21.4767 26.8508 21.3185 26.8508H12.969C12.8108 26.8508 12.6591 26.9089 12.5473 27.0123C12.4354 27.1157 12.3726 27.2559 12.3726 27.4022Z" fill="#FFD34E"/>
</g>
<defs>
<clipPath id="clip0_25_109">
<rect width="38.1691" height="35.2857" fill="white" transform="translate(0.444733 0.386536)"/>
</clipPath>
</defs>
</svg>
